# xmcd CD database file
#
# Track frame offsets:
#	150
#	5842
#	21252
#	34335
#	50242
#	79057
#	92255
#	108825
#	128545
#	143182
#	162027
#	174765
#	189950
#	202686
#	220676
#	234747
#	246329
#	259868
#	275380
#	301041
#	313648
#	325913
#	338169
#
# Disc length: 4692 seconds
#
# Revision: 0
# Processed by: cddbd v1.5.2PL0 Copyright (c) Steve Scherf et al.
# Submitted via: CDex 1.51
#
DISCID=2f125217
DTITLE=Dutch Swing College Band - 1955
DYEAR=1955
DGENRE=Jazz
TTITLE0=Way Down Yonder In New Orleans
TTITLE1=Sensation Rag
TTITLE2=Riverside Blues
TTITLE3=At A Georgia Camp Meeting
TTITLE4=Peter's Swayin's
TTITLE5=South
TTITLE6=Weary Blues
TTITLE7=Basin Street Blues
TTITLE8=Copenhagen
TTITLE9=Lazy River
TTITLE10=Kitty's Dream
TTITLE11=The World Is Waiting For The Sunrise
TTITLE12=Savory Blues
TTITLE13=Lulu's Back In Town
TTITLE14=There'll Be Some Changes Made
TTITLE15=Shortwave Shuffle
TTITLE16=Working Man Blues
TTITLE17=Steamboat Stomp
TTITLE18=When The Saints Go Marching In
TTITLE19=Bill Bailey
TTITLE20=Trouble In Mind
TTITLE21=La Java
TTITLE22=Mon Homme
EXTD=YEAR: 1955
EXTT0=
EXTT1=
EXTT2=
EXTT3=
EXTT4=
EXTT5=
EXTT6=
EXTT7=
EXTT8=
EXTT9=
EXTT10=
EXTT11=
EXTT12=
EXTT13=
EXTT14=
EXTT15=
EXTT16=
EXTT17=
EXTT18=
EXTT19=
EXTT20=
EXTT21=
EXTT22=
PLAYORDER=
